<svg fill="#a0a0a0" height="512pt" viewBox="0 0 512 512.016" width="512pt" xmlns="http://www.w3.org/2000/svg"><path d="m256.003906 512.015625c-44.117187 0-80-35.882813-80-80 0-8.832031 7.167969-16 16-16 8.832032 0 16 7.167969 16 16 0 26.476563 21.523438 48 48 48 26.472656 0 48-21.523437 48-48 0-8.832031 7.167969-16 16-16 8.832032 0 16 7.167969 16 16 0 44.117187-35.882812 80-80 80zm0 0"/><path d="m432.003906 448.015625c-8.832031 0-16-7.167969-16-16s7.167969-16 16-16c2.898438 0 5.332032-2.429687 5.332032-5.332031 0-1.515625-.574219-2.625-1.171876-3.328125-.300781-.214844-.578124-.449219-.875-.683594-39.382812-33.492187-61.953124-82.261719-61.953124-133.78125v-59.542969c0-31.359375-12.203126-60.820312-34.347657-82.984375-22.144531-22.164062-51.625-34.347656-82.984375-34.347656-40.746094 0-77.933594 20.714844-99.480468 55.382813-4.648438 7.507812-14.527344 9.789062-22.035157 5.140624-7.488281-4.652343-9.792969-14.527343-5.140625-22.039062 27.433594-44.136719 74.773438-70.484375 126.65625-70.484375 39.914063 0 77.394532 15.53125 105.597656 43.734375 28.203126 28.203125 43.734376 65.683594 43.734376 105.597656v59.523438c0 41.554687 17.960937 80.894531 49.34375 108.265625.554687.363281 1.089843.746093 1.578124 1.171875 8.320313 7.105468 13.078126 17.453125 13.078126 28.375 0 20.585937-16.746094 37.332031-37.332032 37.332031zm0 0"/><path d="m357.335938 448.015625h-277.332032c-20.589844 0-37.335937-16.746094-37.335937-37.332031 0-10.921875 4.757812-21.269532 13.058593-28.375.511719-.445313 1.066407-.851563 1.640626-1.214844 31.359374-27.351562 49.300781-66.6875 49.300781-108.222656v-59.523438c0-5.824218.257812-11.644531.984375-17.234375 1.148437-8.769531 9.214844-14.871093 17.941406-13.78125 8.765625 1.152344 14.929688 9.191407 13.78125 17.941407-.554688 4.242187-.707031 8.660156-.707031 13.074218v59.523438c0 51.539062-22.589844 100.308594-61.949219 133.78125-.277344.234375-.578125.46875-.875.679687-.597656.746094-1.175781 1.855469-1.175781 3.351563 0 2.902344 2.433593 5.332031 5.335937 5.332031h277.332032c8.832031 0 16 7.167969 16 16s-7.167969 16-16 16zm0 0"/><path d="m256.003906 96.015625c-8.832031 0-16-7.167969-16-16v-64c0-8.832031 7.167969-16 16-16 8.832032 0 16 7.167969 16 16v64c0 8.832031-7.167968 16-16 16zm0 0"/><path d="m496.003906 512.015625c-4.097656 0-8.191406-1.558594-11.308594-4.691406l-480-480c-6.25-6.253907-6.25-16.386719 0-22.636719s16.382813-6.25 22.636719 0l480 480c6.25 6.25 6.25 16.382812 0 22.636719-3.136719 3.132812-7.234375 4.691406-11.328125 4.691406zm0 0"/></svg>