<?xml version="1.0" encoding="iso-8859-1"?>
<!-- Generator: Adobe Illustrator 19.0.0, SVG Export Plug-In . SVG Version: 6.00 Build 0)  -->
<svg fill="#43425d" version="1.1" id="Capa_1" xmlns="http://www.w3.org/2000/svg" xmlns:xlink="http://www.w3.org/1999/xlink" x="0px" y="0px"
	 viewBox="0 0 512 512" style="enable-background:new 0 0 512 512;" xml:space="preserve">
<g>
	<g>
		<path d="M448.8,48.2H269.186C262.434,20.571,237.48,0,207.8,0s-54.633,20.571-61.386,48.2H63.2c-8.284,0-15,6.716-15,15V497
			c0,8.284,6.716,15,15,15h385.6c8.284,0,15-6.716,15-15V63.2C463.8,54.916,457.084,48.2,448.8,48.2z M207.8,30
			c12.911,0,24.115,7.412,29.604,18.2h-59.206C183.686,37.412,194.89,30,207.8,30z M433.8,482H78.2V78.2h66.4v81.4
			c0,34.849,28.351,63.2,63.199,63.2c34.849,0,63.2-28.352,63.2-63.2v-16.067c0-8.284-6.716-15-15-15c-8.284,0-15,6.716-15,15V159.6
			c0,18.307-14.894,33.2-33.2,33.2c-18.306,0-33.199-14.894-33.199-33.2V78.2h259.2V482z"/>
	</g>
</g>
<g>
	<g>
		<path d="M352.399,385.6H159.601c-8.284,0-15,6.716-15,15s6.716,15,15,15H352.4c8.284,0,15-6.716,15-15
			C367.399,392.315,360.684,385.6,352.399,385.6z"/>
	</g>
</g>
<g>
	<g>
		<path d="M352.4,289.2H159.601c-8.285,0-15,6.716-15,15c0,8.284,6.716,15,15,15H352.4c8.284,0,15-6.716,15-15
			S360.684,289.2,352.4,289.2z"/>
	</g>
</g>
<g>
</g>
<g>
</g>
<g>
</g>
<g>
</g>
<g>
</g>
<g>
</g>
<g>
</g>
<g>
</g>
<g>
</g>
<g>
</g>
<g>
</g>
<g>
</g>
<g>
</g>
<g>
</g>
<g>
</g>
</svg>
