<svg fill="#fff" height="512pt" viewBox="0 0 512.01067 512" width="512pt" xmlns="http://www.w3.org/2000/svg"><path d="m256.003906 512.011719c38.636719 0 70.957032-27.542969 78.378906-64h-156.757812c7.425781 36.457031 39.746094 64 78.378906 64zm0 0"/><path d="m106.671875 192.011719v59.476562c0 42.21875-18.496094 82.070313-50.945313 109.503907-8.296874 7.105468-13.054687 17.429687-13.054687 28.351562 0 20.585938 16.746094 37.332031 37.332031 37.332031h278.785156l-251.113281-251.132812c-.597656 5.417969-1.003906 10.898437-1.003906 16.46875zm0 0"/><path d="m505.753906 475.59375-54.65625-54.65625c10.796875-6.546875 18.242188-18.066406 18.242188-31.59375 0-10.921875-4.757813-21.246094-13.269532-28.523438-32.234374-27.261718-50.730468-67.113281-50.730468-109.332031v-59.476562c0-75.074219-55.765625-137.21875-128-147.628907v-23.039062c0-11.796875-9.558594-21.3320312-21.335938-21.3320312-11.773437 0-21.332031 9.5351562-21.332031 21.3320312v23.039062c-40.917969 5.890626-76.308594 28.585938-99.5 60.628907l-98.75-98.75c-8.34375-8.339844-21.824219-8.339844-30.164063 0-8.34375 8.339843-8.34375 21.824219 0 30.164062l469.332032 469.335938c4.160156 4.160156 9.621094 6.25 15.082031 6.25s10.921875-2.089844 15.082031-6.25c8.34375-8.34375 8.34375-21.824219 0-30.167969zm0 0"/></svg>