<svg fill="#43425d" height="512pt" viewBox="0 0 512 512" width="512pt" xmlns="http://www.w3.org/2000/svg"><path d="m0 392h97.238281c19.636719 69.179688 83.375 120 158.761719 120s139.125-50.820312 158.761719-120h97.238281v-392h-512zm330.710938-60c-1.386719-36.316406-7.777344-70.1875-18.355469-96.636719-1.957031-4.890625-4.042969-9.457031-6.242188-13.714843 45.257813 18.160156 78.472657 60.144531 84.050781 110.351562zm-74.710938 150c-8.929688 0-20.113281-13.542969-28.5-34.503906-9.234375-23.085938-14.859375-53.027344-16.1875-85.507813h89.375c-1.328125 32.480469-6.953125 62.421875-16.1875 85.507813-8.386719 20.960937-19.570312 34.503906-28.5 34.503906zm28.5-235.496094c9.234375 23.085938 14.859375 53.019532 16.1875 85.496094h-89.375c1.328125-32.476562 6.953125-62.410156 16.1875-85.496094 8.386719-20.960937 19.570312-34.503906 28.5-34.503906s20.113281 13.542969 28.5 34.503906zm-84.855469-11.140625c-10.578125 26.449219-16.96875 60.320313-18.355469 96.636719h-59.449218c5.574218-50.207031 38.789062-92.191406 84.046875-110.351562-2.199219 4.257812-4.285157 8.824218-6.242188 13.714843zm-77.804687 126.636719h59.449218c1.386719 36.316406 7.777344 70.1875 18.355469 96.636719 1.957031 4.890625 4.042969 9.457031 6.242188 13.714843-45.257813-18.160156-78.472657-60.144531-84.046875-110.351562zm184.273437 110.351562c2.195313-4.257812 4.285157-8.824218 6.238281-13.714843 10.582032-26.449219 16.972657-60.332031 18.359376-96.648438h59.449218c-5.574218 50.210938-38.789062 92.203125-84.046875 110.363281zm114.199219-110.351562c.445312-4.941406.6875-9.941406.6875-15 0-90.980469-74.019531-165-165-165s-165 74.019531-165 165c0 5.058594.242188 10.058594.6875 15h-61.6875v-212h452v212zm61.6875-332v90h-452v-90zm0 0"/><path d="m421 60h30v30h-30zm0 0"/><path d="m361 60h30v30h-30zm0 0"/><path d="m301 60h30v30h-30zm0 0"/></svg>