<?xml version="1.0" encoding="iso-8859-1"?>
<!-- Generator: Adobe Illustrator 19.0.0, SVG Export Plug-In . SVG Version: 6.00 Build 0)  -->
<svg fill="#43425d" version="1.1" id="Layer_1" xmlns="http://www.w3.org/2000/svg" xmlns:xlink="http://www.w3.org/1999/xlink" x="0px" y="0px"
	 viewBox="0 0 512 512" style="enable-background:new 0 0 512 512;" xml:space="preserve">
<g>
	<g>
		<path d="M204.8,136.533V204.8H34.133V34.133h85.333V0h-102.4C7.646,0,0,7.629,0,17.067v204.8c0,9.438,7.646,17.067,17.067,17.067
			h204.8c9.421,0,17.067-7.629,17.067-17.067v-85.333H204.8z"/>
	</g>
</g>
<g>
	<g>
		<path d="M494.933,0h-204.8c-9.421,0-17.067,7.629-17.067,17.067v204.8c0,9.438,7.646,17.067,17.067,17.067h204.8
			c9.421,0,17.067-7.629,17.067-17.067v-204.8C512,7.629,504.354,0,494.933,0z M477.867,204.8H307.2V34.133h170.667V204.8z"/>
	</g>
</g>
<g>
	<g>
		<path d="M204.8,392.533v85.333H34.133V307.2h85.333v-34.133h-102.4C7.646,273.067,0,280.695,0,290.133v204.8
			C0,504.371,7.646,512,17.067,512h204.8c9.421,0,17.067-7.629,17.067-17.067v-102.4H204.8z"/>
	</g>
</g>
<g>
	<g>
		<path d="M494.933,273.067h-204.8c-9.421,0-17.067,7.629-17.067,17.067v204.8c0,9.438,7.646,17.067,17.067,17.067h204.8
			c9.421,0,17.067-7.629,17.067-17.067v-204.8C512,280.695,504.354,273.067,494.933,273.067z M477.867,477.867H307.2V307.2h170.667
			V477.867z"/>
	</g>
</g>
<g>
	<g>
		<path d="M208.213,6.827l-90.59,120.798l-20.224-20.224l-24.132,24.132l34.133,34.133c3.209,3.226,7.561,5.001,12.066,5.001
			c0.393,0,0.802-0.017,1.212-0.051c4.932-0.341,9.472-2.816,12.442-6.775l102.4-136.533L208.213,6.827z"/>
	</g>
</g>
<g>
	<g>
		<path d="M208.213,279.893l-90.59,120.798l-20.224-20.224l-24.132,24.132l34.133,34.133c3.209,3.226,7.561,5,12.066,5
			c0.393,0,0.802-0.017,1.212-0.068c4.932-0.341,9.472-2.816,12.442-6.775l102.4-136.533L208.213,279.893z"/>
	</g>
</g>
<g>
</g>
<g>
</g>
<g>
</g>
<g>
</g>
<g>
</g>
<g>
</g>
<g>
</g>
<g>
</g>
<g>
</g>
<g>
</g>
<g>
</g>
<g>
</g>
<g>
</g>
<g>
</g>
<g>
</g>
</svg>
