<svg height="512" viewBox="0 0 64 64" width="512" xmlns="http://www.w3.org/2000/svg" fill="#5e5d68"><g id="outline"><path d="m61 6h-37.9l-19.9-3.98a1 1 0 0 0 -1.2.98v54a1 1 0 0 0 .8.98l20 4a1 1 0 0 0 .2.02h39v-55a1 1 0 0 0 -1-1zm-57-1.78 18 3.6v51.96l-18-3.6zm20 3.78h36v2h-25a1 1 0 0 0 -.707.293l-8 8a1 1 0 0 0 -.293.707v41h-2zm10 5.414v4.586h-4.586zm26 46.586h-28v-17a3 3 0 0 1 3-3h25zm-25-22a5.006 5.006 0 0 0 -5 5v17h-2v-40h7a1 1 0 0 0 1-1v-7h24v26z"/><path d="m47 46a4 4 0 0 1 4 4h2a6 6 0 0 0 -12 0h2a4 4 0 0 1 4-4z"/><path d="m38 14v8h-8v6h28v-14zm18 12h-24v-2h8v-8h16z"/><path d="m30 30h17v2h-17z"/><path d="m49 30h9v2h-9z"/><path d="m30 34h9v2h-9z"/><path d="m41 34h17v2h-17z"/><path d="m55 56h2v2h-2z"/><path d="m51 56h2v2h-2z"/></g></svg>