<svg xmlns="http://www.w3.org/2000/svg" height="512pt" version="1.1" viewBox="-11 0 512 512" width="512pt">
<g id="surface1">
<path d="M 416.570312 142.671875 L 416.570312 0 L 73.96875 0 L 73.96875 142.671875 L 0 200.679688 L 0 512 L 490.539062 512 L 490.539062 200.679688 Z M 416.570312 180.789062 L 451.230469 207.96875 L 416.570312 235.160156 Z M 103.96875 30 L 386.570312 30 L 386.570312 258.679688 L 245.269531 369.5 L 103.96875 258.679688 Z M 73.96875 180.789062 L 73.96875 235.160156 L 39.308594 207.96875 Z M 460.539062 482 L 30 482 L 30 238.800781 L 245.269531 407.621094 L 460.539062 238.800781 Z M 460.539062 482 " style=" stroke:none;fill-rule:nonzero;fill:rgb(0%,0%,0%);fill-opacity:1;" />
<path d="M 171.679688 265.988281 C 191.550781 282.839844 217.25 293 245.269531 293 C 257.078125 293 268.71875 291.199219 279.878906 287.648438 L 272.988281 265.988281 L 270.78125 259.058594 C 262.570312 261.671875 253.988281 263 245.269531 263 C 198.949219 263 161.269531 225.320312 161.269531 179 C 161.269531 132.679688 198.949219 95 245.269531 95 C 291.589844 95 329.269531 132.679688 329.269531 179 L 329.269531 215.789062 C 329.269531 224.769531 321.960938 232.078125 312.980469 232.078125 C 304 232.078125 296.691406 224.769531 296.691406 215.789062 L 296.691406 129.738281 L 269.789062 129.738281 C 262.269531 126.011719 253.941406 124.03125 245.390625 124.03125 C 215.078125 124.03125 190.429688 148.691406 190.429688 179 C 190.429688 209.308594 215.078125 233.96875 245.390625 233.96875 C 253.539062 233.96875 261.410156 232.210938 268.570312 228.871094 C 274.230469 248.039062 292 262.078125 312.980469 262.078125 C 338.5 262.078125 359.269531 241.308594 359.269531 215.789062 L 359.269531 179 C 359.269531 159.589844 354.398438 141.300781 345.800781 125.289062 C 330.871094 97.441406 304.691406 76.480469 273.378906 68.511719 C 264.378906 66.21875 254.96875 65 245.269531 65 C 235.570312 65 226.160156 66.21875 217.160156 68.511719 C 185.851562 76.480469 159.671875 97.441406 144.738281 125.289062 C 136.140625 141.300781 131.269531 159.589844 131.269531 179 C 131.269531 213.839844 146.980469 245.070312 171.679688 265.988281 Z M 266.691406 192.03125 C 265.699219 193.640625 264.539062 195.140625 263.199219 196.5 C 258.46875 201.308594 252.140625 203.96875 245.390625 203.96875 C 231.628906 203.96875 220.429688 192.769531 220.429688 179 C 220.429688 165.230469 231.628906 154.03125 245.390625 154.03125 C 251.539062 154.03125 257.441406 156.28125 262.011719 160.371094 C 263.851562 162.011719 265.421875 163.890625 266.691406 165.960938 Z M 266.691406 192.03125 " style=" stroke:none;fill-rule:nonzero;fill:rgb(0%,0%,0%);fill-opacity:1;" />
</g>
</svg>