<?xml version="1.0" encoding="iso-8859-1"?>
<!-- Generator: Adobe Illustrator 19.0.0, SVG Export Plug-In . SVG Version: 6.00 Build 0)  -->
<svg xmlns="http://www.w3.org/2000/svg" xmlns:xlink="http://www.w3.org/1999/xlink" version="1.1" id="Capa_1" x="0px" y="0px" viewBox="0 0 512.136 512.136" style="enable-background:new 0 0 512.136 512.136;" xml:space="preserve" width="512" height="512">
<path fill="#7671bd" d="M446.113,170.084H317.751v-30.048h69.796L256.068,0.029L124.589,140.037h69.796v30.048H66.023L0,296.624h60.116v215.483  h391.904V296.624h60.115L446.113,170.084z M193.917,110.037l62.152-66.184l62.152,66.184h-30.47v60.048h-63.365v-60.048H193.917z   M49.491,266.624l34.718-66.539h147.114l-34.718,66.539H49.491z M90.116,296.624h124.674l26.278-50.364v235.847H90.116V296.624z   M271.068,482.107V246.26l26.278,50.364h124.674v185.483H271.068z M315.532,266.624l-34.718-66.539h147.114l34.718,66.539H315.532z"/>
</svg>
