<svg id="Capa_1" enable-background="new 0 0 512 512" height="512" viewBox="0 0 512 512" width="512" xmlns="http://www.w3.org/2000/svg"><g><path fill="#7671bd" d="m497 361h-45.858v-164.89c0-8.284-6.716-15-15-15-3.056 0-340.203 0-359.527 0-8.284 0-15 6.716-15 15v164.89h-46.615c-8.284 0-15 6.716-15 15v60c0 8.284 6.716 15 15 15h16v46c0 8.284 6.716 15 15 15h60c8.284 0 15-6.716 15-15v-46h270v46c0 8.284 6.716 15 15 15h60c8.284 0 15-6.716 15-15v-46h16c8.284 0 15-6.716 15-15v-60c0-8.284-6.716-15-15-15zm-165.95-149.89h29.95v29.89h-29.95zm-30 0v44.89c0 8.284 6.716 15 15 15h59.95c8.284 0 15-6.716 15-15v-44.89h30.142v149.89h-149.528v-149.89zm-150 0h29.95v29.89h-29.95zm-59.436 0h29.436v44.89c0 8.284 6.716 15 15 15h59.95c8.284 0 15-6.716 15-15v-44.89h30.142v149.89h-149.528zm-.614 270.89h-30v-31h30zm360 0h-30v-31h30zm31-61h-452v-30h452z"/><path fill="#9E9BD2" d="m245.306 146.519c5.881 5.977 15.516 5.969 21.389 0l60-61c9.308-9.465 2.582-25.519-10.695-25.519h-15v-45c0-8.284-6.716-15-15-15h-60c-8.284 0-15 6.716-15 15v45h-15c-13.275 0-20.004 16.053-10.694 25.519zm-4.306-71.519v-45h30v45c0 6.544 4.189 12.109 10.034 14.158l-25.034 25.451-25.034-25.451c5.845-2.049 10.034-7.614 10.034-14.158z"/></g></svg>