<svg fill="#43425d"  id="Layer_1" enable-background="new 0 0 512.004 512.004" height="512" viewBox="0 0 512.004 512.004" width="512" xmlns="http://www.w3.org/2000/svg"><g><path d="m512 435.671v-363.011h-154.671c-14.335-42.207-54.347-72.66-101.338-72.66s-87.003 30.453-101.338 72.66h-154.65v363.011h181.006v46.333h-30.264v30h210.535v-30h-30.264v-46.333zm-348.171-190.632c8.498-13.646 13.695-29.28 14.897-45.508h154.53c1.202 16.228 6.398 31.862 14.897 45.508zm111.175 30c-.094 10.402-8.578 18.838-19.003 18.838s-18.908-8.436-19.003-18.838zm-19.013-245.039c42.45 0 76.986 34.535 76.986 76.985v62.546h-153.972v-62.546c0-42.45 34.536-76.985 76.986-76.985zm-106.891 72.66c-.057 1.436-.095 2.876-.095 4.325v85.288c0 20.228-8.959 39.611-24.171 52.766h-23.114v30h105.275c.094 26.945 22.04 48.838 49.007 48.838s48.913-21.893 49.007-48.838h105.275v-30h-23.137c-15.211-13.154-24.17-32.538-24.17-52.766v-85.288c0-1.449-.037-2.89-.095-4.325h119.118v247.007h-451.997v-247.007zm-119.097 277.007h451.997v26.004h-451.997zm271.014 102.337h-90.008v-46.333h90.008z"/><path d="m435.072 171.53c0-15.025-5.851-29.151-16.476-39.776l-21.214 21.213c4.958 4.959 7.689 11.552 7.689 18.563 0 7.013-2.73 13.605-7.689 18.562l21.213 21.215c10.625-10.624 16.477-24.75 16.477-39.777z"/><path d="m114.621 190.093c-4.958-4.957-7.689-11.55-7.689-18.562s2.731-13.604 7.689-18.563l-21.214-21.213c-10.625 10.625-16.476 24.751-16.476 39.776 0 15.026 5.852 29.152 16.476 39.777z"/></g></svg>