<svg id="Capa_1" enable-background="new 0 0 512 512" height="512" viewBox="0 0 512 512" width="512" xmlns="http://www.w3.org/2000/svg" xmlns:xlink="http://www.w3.org/1999/xlink"><linearGradient id="SVGID_1_" gradientUnits="userSpaceOnUse" x1="256" x2="256" y1="512" y2="0"><stop offset="0" stop-color="#c3ffe8"/><stop offset=".9973" stop-color="#f0fff4"/></linearGradient><linearGradient id="SVGID_2_" gradientUnits="userSpaceOnUse" x1="256" x2="256" y1="407" y2="105"><stop offset="0" stop-color="#9cffac"/><stop offset="1" stop-color="#00b59c"/></linearGradient><g><g><circle cx="256" cy="256" fill="url(#SVGID_1_)" r="256"/></g><g><g><path d="m247.04 353.203c-50.596-4.623-88.745-46.416-88.745-97.203 0-32.685 16.455-63.166 43.406-81.286l11.667 15.553c4.39 5.859 13.897 4.184 15.718-3.175l17.765-71.059c1.405-5.585-2.83-11.034-8.613-11.034h-71.059c-7.337 0-11.472 8.375-7.113 14.2l9.602 12.846c-40.111 28.071-64.668 74.703-64.668 123.955 0 75.595 56.408 139.949 131.206 149.682 4.436.591 8.636-2.249 9.75-6.61l8.882-34.827c1.337-5.239-2.297-10.527-7.798-11.042zm17.842-54.428c10.317-3.679 17.765-13.446 17.765-25.011 0-20.497-15.379-24.192-24.574-26.404-9.828-2.359-10.955-3.296-10.955-9.125 0-7.729 11.354-11.545 15.986-5.326 2.941 3.921 8.518 4.719 12.439 1.77 3.921-2.94 4.71-8.509 1.77-12.438-3.159-4.21-7.562-7.185-12.43-8.928v-10.606c0-4.91-3.973-8.883-8.882-8.883s-8.882 3.973-8.882 8.883v10.519c-10.317 3.679-17.765 13.446-17.765 25.011 0 20.497 15.379 24.192 24.574 26.404 9.828 2.359 10.955 3.296 10.955 9.125 0 4.901-3.981 8.882-8.882 8.882-2.819 0-5.413-1.292-7.104-3.556-2.941-3.921-8.492-4.693-12.439-1.77-3.921 2.94-4.71 8.509-1.77 12.438 3.159 4.21 7.562 7.185 12.43 8.928v10.606c0 4.91 3.973 8.882 8.882 8.882s8.882-3.973 8.882-8.882zm142.118-42.775c0-75.596-56.408-139.949-131.206-149.682-4.537-.599-8.648 2.255-9.75 6.61l-8.882 34.818c-1.34 5.253 2.308 10.528 7.798 11.042 50.588 4.632 88.745 46.424 88.745 97.211 0 32.684-16.455 63.165-43.406 81.286l-11.667-15.553c-4.441-5.946-13.915-4.111-15.718 3.175l-17.765 71.059c-1.405 5.585 2.83 11.034 8.613 11.034h71.059c7.337 0 11.472-8.375 7.113-14.2l-9.602-12.846c40.111-28.07 64.668-74.702 64.668-123.954z" fill="url(#SVGID_2_)"/></g></g></g></svg>